#!OML:ASF F:\VICON\USERDATA\INSTALL\rory3\rory3.ASF
:FULLY-SPECIFIED
:DEGREES
89
root 0.7336428679188935 17.48229985783002 38.6191859848791 1.0993380141942466 -2.286034934903797 -0.5485382956170424
lfemur -22.137021857977256 5.206763185632367 -17.580250116882677
ltibia 76.07531959707379
lfoot 1.4609413298765628 -8.632603090200577
ltoes -6.463274868868824
rfemur -16.4019519320384 6.317798147271701 30.794944925940033
rtibia 53.3583710058558
rfoot -4.5249573911134275 -5.155365503339941
rtoes 0.27964324914890093
lowerback 13.573981817914358 0.26658342192117146 0.7845536777507025
upperback -0.1469095327292541 2.46675397322508 2.249320428517657
thorax -8.469867751507831 0.9369310969218922 0.6611576207381487
lowerneck -20.01514264210595 -4.054344488286995 -1.7010626092774361
upperneck 9.255926065733211 -5.902959518978793 2.934154491027819
head 6.3007534094319375 -2.385160918628652 0.7160454378815267
lclavicle 4.287488207731266e-15 5.75886165290891e-17
lhumerus -50.47849594325834 -11.730146042268336 96.97777866468634
lradius 110.55116506372339
lwrist 28.38785684636046
lhand -29.378507871796504 3.190104764095487
lfingers 7.125019999999998
lthumb -2.714535573858465 32.68018113026773
rclavicle 4.28752700038245e-15 5.761646213958064e-17
rhumerus -45.88513011972705 12.372824442791117 -98.36918267022014
rradius 105.22567792780049
rwrist -9.667762411764585
rhand -20.499467872761684 36.436781006522416
rfingers 7.125019999999998
rthumb 5.947130664214916 6.367716604918659
90
root 0.7212202714624174 17.48128920826934 38.603852467162845 1.2550868040611252 -2.0289529295772146 -0.8686066481394934
lfemur -24.085208799152163 4.748900524950219 -18.240270905709853
ltibia 71.95035786201942
lfoot 2.398945604850298 -8.322116560636346
ltoes -6.746691340311651
rfemur -13.875715850562177 6.637214572947385 31.542346398843804
rtibia 53.72388599272549
rfoot -4.510518616373636 -4.93787250859628
rtoes 0.5602780009320864
lowerback 13.628658029742349 0.39041787229347547 1.1443634543395695
upperback -0.22741312234856514 2.613167898960314 2.1968577014855377
thorax -8.472740017227615 1.0848779447324721 0.42050168197511967
lowerneck -19.892774641757097 -4.135288437849369 -1.689042077064439
upperneck 9.37135793544874 -5.959221838065525 3.016390028016618
head 6.280019221698847 -2.43147629216368 0.7090506082330906
lclavicle 4.287488207731266e-15 5.75886165290891e-17
lhumerus -51.2791555550048 -11.390559763564365 97.06390482910683
lradius 110.4332340767655
lwrist 28.51568507940679
lhand -29.551245720388692 3.0037950268613844
lfingers 7.125019999999998
lthumb -2.7485583739601616 32.66979658787489
rclavicle 4.28752700038245e-15 5.761646213958064e-17
rhumerus -44.590710579588766 12.680405824156788 -98.32440184743504
rradius 105.13899832115402
rwrist -9.730196891484301
rhand -20.457411033413994 36.45907090823478
rfingers 7.125019999999998
rthumb 6.001677906667434 6.433343480088297
91
root 0.6943091873260141 17.462099825218825 36.82309515143438 1.3053504426429585 -2.1164534562259196 -1.2830062505351811
lfemur -23.96295168932425 4.604664841098863 -18.36878537943199
ltibia 67.4724222591101
lfoot 2.5883785593383863 -8.992016846954447
ltoes -6.994929248442243
rfemur -12.989837697432936 6.369549199175211 31.260103787741883
rtibia 53.75447744314481
rfoot -5.633313403124405 -5.152959878711738
rtoes 1.2268017406724814
lowerback 13.694842065812786 0.546537344590971 1.6170630836430342
upperback -0.32455033281378526 2.7489244899873198 2.135628985778691
thorax -8.499273955684782 1.1737949970686297 0.07080288314813693
lowerneck -19.748958964473882 -4.172937864998326 -1.6558199375220242
upperneck 9.447747590284356 -6.001821479708163 3.0637957380709326
head 6.266176439159359 -2.466064379118847 0.7040465044321633
lclavicle 4.287488207731266e-15 5.75886165290891e-17
lhumerus -52.17970221624894 -11.338075840707006 97.10104834977396
lradius 110.47817279014878
lwrist 28.47710997880591
lhand -29.581862299761614 2.973818748387918
lfingers 7.125019999999998
lthumb -2.8746234919385376 32.59464649986418
rclavicle 4.28752700038245e-15 5.761646213958064e-17
rhumerus -43.43064034724492 12.968653003108603 -98.26271321488137
rradius 105.12470579967525
rwrist -9.684691532005735
rhand -20.47784900033672 36.42031361328723
rfingers 7.125019999999998
rthumb 5.973738634369639 6.410486460093555
92
root 0.7288743258025372 17.54070998021263 38.43485595482698 1.5637383435990595 -1.5450740852058362 -1.2571104204923116
lfemur -25.01412900461431 3.9743733292186296 -18.99793771311237
ltibia 62.46940717863718
lfoot 2.1121023480991896 -10.199947796418924
ltoes -7.052304835688658
rfemur -13.681781907627569 5.808221727774351 30.63730278789132
rtibia 53.654026919432944
rfoot -6.450425206708091 -5.610047507675292
rtoes 1.2136964126883634
lowerback 13.702490396122098 0.6789180432941451 2.034086005006938
upperback -0.42505654796762565 2.9236715811561775 2.083873956067631
thorax -8.495649526404666 1.287998990882697 -0.15879261500712744
lowerneck -19.68210244655145 -4.257664630716855 -1.6674464201807826
upperneck 9.659438029946491 -5.940353639440391 3.167227222732544
head 6.267722188186099 -2.480488093517395 0.7094140370828558
lclavicle 4.287488207731266e-15 5.75886165290891e-17
lhumerus -52.87363621060887 -11.192504033458926 97.10624815861604
lradius 110.45198074456258
lwrist 28.531787830362443
lhand -29.611398467171085 2.9755203481471
lfingers 7.125019999999998
lthumb -2.9336314517557165 32.63760851209738
rclavicle 4.28752700038245e-15 5.761646213958064e-17
rhumerus -42.41414619362341 13.242805231578716 -98.1815237316711
rradius 105.14026620150233
rwrist -9.6417745994079
rhand -20.47517219214333 36.4332750234252
rfingers 7.125019999999998
rthumb 5.896370548109923 6.351916284210704
93
root 0.7458696600502246 17.600542752799182 38.19335608801763 1.6682344509236247 -1.250284983577505 -1.401176299918156
lfemur -24.367667023811997 3.785192192127389 -18.94688508671379
ltibia 57.22797821316439
lfoot 2.4219791351686037 -10.519183365600774
ltoes -6.952711482108442
rfemur -12.290060342374161 5.517188936911753 30.51525791275986
rtibia 53.51453945309489
rfoot -7.00398989336889 -6.025953644009091
rtoes 1.2290009771403327
lowerback 13.643662362061722 0.7863180663731786 2.369082659942305
upperback -0.5057183370407667 3.1915368418531127 2.0584890091387913
thorax -8.54646158661561 1.2446282730798686 -0.6260149913881552
lowerneck -19.550290263397365 -4.2412177891294 -1.6308969629526109
upperneck 9.658671965920876 -5.935119711089629 3.17179936515839
head 6.289733083883723 -2.456366232820652 0.7259024919860089
lclavicle 4.287488207731266e-15 5.75886165290891e-17
lhumerus -53.64975026005388 -10.970416861588395 97.05031182058603
lradius 110.18558671139769
lwrist 28.54002796986634
lhand -29.624028749665367 3.0194477354669993
lfingers 7.125019999999998
lthumb -2.989033929668698 32.64220187961766
rclavicle 4.28752700038245e-15 5.761646213958064e-17
rhumerus -41.496631813978624 13.538444085351472 -98.09286278627076
rradius 105.20381483867409
rwrist -9.709337676181782
rhand -20.512122296316377 36.40619538148756
rfingers 7.125019999999998
rthumb 5.828863124494301 6.279947489770683
94
root 0.8067999320164324 17.73714091522998 40.22219893629795 1.9555980524900343 -0.5149414446369861 -1.2787754859971385
lfemur -26.25431013226784 2.8835230298754104 -19.948266438076864
ltibia 52.24329515200501
lfoot 1.7662861656879598 -10.216794835202471
ltoes -6.543300872912161
rfemur -11.131169938912777 5.481230014487924 30.397497205813757
rtibia 53.15868926097232
rfoot -7.8606822140437895 -6.588089256185911
rtoes 1.3001099980988435
lowerback 13.475810799491937 0.8350765986418636 2.543615864946964
upperback -0.5713976491196917 3.455449333009337 2.032595959329446
thorax -8.453503098590316 1.386890313690356 -0.7164542235569196
lowerneck -19.48729143017162 -4.273603688595927 -1.6499253006309988
upperneck 9.79780044469621 -5.8559055717117605 3.229043047785335
head 6.311354066590482 -2.4318084474961608 0.7409519640056617
lclavicle 4.287488207731266e-15 5.75886165290891e-17
lhumerus -53.91612802115034 -10.588268971456387 97.07274286018534
lradius 109.77428256449052
lwrist 28.631354708743366
lhand -29.60182050913595 3.044606601891003
lfingers 7.125019999999998
lthumb -3.137801767559353 32.688718599320815
rclavicle 4.28752700038245e-15 5.761646213958064e-17
rhumerus -40.72950289301635 13.841794938940966 -98.0192018193126
rradius 105.33456152718387
rwrist -9.680406123782815
rhand -20.44854820379107 36.44227133517316
rfingers 7.125019999999998
rthumb 5.87906846012392 6.352135910294094
95
root 0.8410516202322456 17.838716940738035 40.03145813769081 2.0859896512470764 -0.1680616048384903 -1.3743781107048525
lfemur -25.31671290165782 2.8167751322736136 -19.964509168945174
ltibia 47.54968715443228
lfoot 0.8673091648187021 -9.829844800300963
ltoes -6.2396154994713235
rfemur -10.794711496401785 5.344581446808605 29.83078830302132
rtibia 52.64223264518394
rfoot -7.4829859669724055 -6.740110855467879
rtoes 1.6179257960086353
lowerback 13.259513648598922 0.8872066646784179 2.686394317001477
upperback -0.6630102994872861 3.6021859824019313 1.9654075458269715
thorax -8.448765216366095 1.3880823277088454 -1.0068569901620212
lowerneck -19.399423653983494 -4.237062589110588 -1.6450946178580934
upperneck 9.764433175823282 -5.8737581213541254 3.1905057367831837
head 6.356641593061961 -2.3987390659035657 0.7648253488936452
lclavicle 4.287488207731266e-15 5.75886165290891e-17
lhumerus -55.36986590984969 -10.702276659832165 96.82599412244231
lradius 109.35554280058521
lwrist 28.76446421511493
lhand -29.623412743472162 3.080089438723164
lfingers 7.125019999999998
lthumb -3.096357856500447 32.9048244377699
rclavicle 4.28752700038245e-15 5.761646213958064e-17
rhumerus -39.95207405169401 14.192563091641757 -97.93990811606085
rradius 105.48210045876057
rwrist -9.546772180887919
rhand -20.42636329876536 36.435634374950325
rfingers 7.125019999999998
rthumb 5.9400049303803435 6.458152477475396
96
root 0.9107683319871411 17.995500778516192 42.173652320646106 2.3794168716570017 0.5579661105221574 -1.1847120188554376
lfemur -27.724898139194572 1.9308022194279602 -21.087061912007506
ltibia 43.247864384506485
lfoot 0.748030488448803 -8.849730247366484
ltoes -5.694227549250928
rfemur -9.021075312259919 5.600584938424962 29.89102256980852
rtibia 52.276956359624684
rfoot -6.998840881659619 -6.603216095575639
rtoes 1.2068392499716885
lowerback 13.010544182797549 0.9422969713045053 2.787507089002702
upperback -0.7693888810332123 3.723760501878592 1.8734992093452103
thorax -8.348808509405073 1.4995706003926221 -1.021001279929906
lowerneck -19.42386005764285 -4.284884583378781 -1.69537238956729
upperneck 10.001132340620195 -5.757544508275479 3.2749908302461104
head 6.364408165529218 -2.391895903741759 0.7768603978219405
lclavicle 4.287488207731266e-15 5.75886165290891e-17
lhumerus -56.059351311618755 -10.562761272417166 96.77719146946632
lradius 109.04519798075314
lwrist 28.886326266139044
lhand -29.739624284816117 2.993873857834471
lfingers 7.125019999999998
lthumb -3.1652600552561543 32.92456296699629
rclavicle 4.28752700038245e-15 5.761646213958064e-17
rhumerus -39.29648950893849 14.537876733655477 -97.90560045611257
rradius 105.60763678804214
rwrist -9.461587900500938
rhand -20.35437999395257 36.47702072750025
rfingers 7.125019999999998
rthumb 5.8891246222509555 6.452351908204781
